PathFileType	4	(X/Y/Z)	C:\Users\WrightLab\Desktop\Jo\P4V128.trc
DataRate	CameraRate	NumFrames	NumMarkers	Units	OrigDataRate	OrigDataStartFrame	OrigNumFrames
100.00	100.00	       17	19	mm	100.00	245	       489
Frame#	Time	Headset_Front			Headset_Back			Headset_Left			Headset_Right			Left_Shoulder			Right_Shoulder			Sternum			C7			Left Elbow			Right Elbow			Left Wrist			Right Wrist			Left ASIS			Right ASIS			S2			Left Knee			Right Knee			Left Ankle			Right Ankle			
		X1	Y1	Z1	X2	Y2	Z2	X3	Y3	Z3	X4	Y4	Z4	X5	Y5	Z5	X6	Y6	Z6	X7	Y7	Z7	X8	Y8	Z8	X9	Y9	Z9	X10	Y10	Z10	X11	Y11	Z11	X12	Y12	Z12	X13	Y13	Z13	X14	Y14	Z14	X15	Y15	Z15	X16	Y16	Z16	X17	Y17	Z17	X18	Y18	Z18	X19	Y19	Z19	

245	2.440	92.54327	1687.53076	1004.30518							-28.84306	1714.11877	917.74738	201.67990	1544.73132	730.96613	-86.65218	1549.95142	823.46838	100.66499	1477.31921	874.94885				350.75845	1207.08008	654.13324	-235.41631	1203.19165	847.15955	394.49240	926.84143	786.35004	-159.69006	954.13623	1002.53589	224.70213	1059.64490	757.16138	-66.46203	1045.76563	917.90869	3.66418	1071.21130	668.75800	244.22868	572.35297	717.13416	2.58103	616.09912	1055.56189	189.11739	76.60196	619.10181	40.98112	177.73016	775.99402	
246	2.450	94.10849	1687.48486	1014.59698							-26.23085	1713.15906	927.09192	206.40939	1544.44373	741.89746	-82.56595	1549.07642	831.49707	103.06232	1476.53320	885.29681				358.88489	1207.43311	669.31036	-232.96922	1202.84900	852.59125	402.55630	928.68512	804.56635	-158.96040	953.58691	1009.40912	227.61049	1058.20483	765.76410	-64.64363	1045.22412	924.92828	9.15675	1071.95300	675.86115	245.61900	572.50684	720.70129	3.31479	617.82971	1066.11279	189.18869	76.60058	619.63123	57.91965	168.26474	805.19873	
247	2.460	95.40252	1686.53564	1025.24597							-24.56271	1712.56104	936.57343	210.00439	1544.00220	754.54376	-79.78902	1548.55408	839.96979	105.41225	1475.66455	895.83508				366.47595	1207.61633	685.20660	-229.53194	1201.91260	857.81995	411.14639	930.30878	823.64880	-158.36952	953.02728	1016.26160	232.25941	1057.55713	778.63007	-62.74447	1044.22583	932.23767	14.31627	1071.65295	684.99591	246.36053	572.27533	724.30792	2.94525	619.35779	1076.21765	189.24524	76.85122	619.69702	73.15369	159.59790	834.43085	
248	2.470	96.59901	1685.81409	1035.64771							-22.87421	1711.42004	946.18622	214.84128	1543.14807	766.58655	-76.69869	1547.67310	848.30194	108.21361	1474.64685	906.45551				373.55850	1207.90112	701.24036	-226.90216	1201.06836	863.38049	417.89316	932.04425	842.37061	-157.79543	951.89471	1023.05347	236.38321	1057.04224	789.85883	-61.40604	1042.86426	939.60828	19.53384	1071.26074	692.60449	247.48650	571.95203	728.09656	2.00205	620.28656	1086.31458	189.40195	76.99176	620.08667	86.73631	150.96817	864.65662	
249	2.480	97.78573	1685.02087	1046.24841							-20.39960	1709.97778	955.52319	218.82498	1542.55615	779.29736	-73.61938	1546.75549	856.63367	110.04633	1473.58740	917.35236				380.84415	1207.78455	717.07819	-223.54842	1199.85754	869.11017	426.45264	933.47333	861.10065	-157.24730	951.17889	1029.88281	239.86084	1055.69385	801.34290	-59.76866	1042.29993	947.12036	24.42621	1070.87561	701.68774	249.01862	572.10785	732.46014	2.32025	620.27399	1095.38403	189.19730	77.28544	620.16754	99.89962	142.22318	895.73035	
250	2.490	98.91874	1683.64343	1056.76794							-18.55779	1708.50940	965.08722	222.41977	1541.39917	792.96539	-71.70793	1545.83582	865.39276	112.19109	1472.27954	928.37573				387.41022	1207.52319	733.23206	-221.18147	1198.57202	875.21765	432.36282	934.10730	878.41846	-156.81439	949.46637	1036.99463	243.36162	1054.49927	813.22296	-58.19471	1040.83728	954.87854	30.09925	1070.44812	709.46826	250.23346	572.14313	736.90363	2.19920	620.18848	1103.78662	189.07549	77.51859	620.36487	110.99930	134.65436	926.88068	
251	2.500	99.68195	1682.33215	1067.35730							-17.32926	1706.88599	974.71527	225.69284	1540.10925	803.77063	-68.67350	1544.10815	873.91492	114.71463	1470.24390	939.54437				394.10815	1207.46667	749.36926	-218.36256	1197.02612	881.10516	440.16660	937.38556	900.41254	-156.39851	948.02783	1044.16040	246.35870	1052.54712	823.68103	-57.11784	1039.51807	962.43567	34.74652	1068.77954	719.04242	251.31241	571.63049	742.14166	1.74764	619.89130	1112.51135	188.80566	77.99718	620.69257	119.46436	127.27052	960.11304	
252	2.510	100.76735	1680.82666	1077.89282							-16.07238	1705.30872	984.48193	229.26100	1538.84021	817.43304	-65.98482	1542.61963	882.44531	115.52995	1469.08240	949.90192				400.28534	1207.59009	766.03772	-215.94763	1195.28101	886.97614	446.77142	937.18976	916.24811	-156.16295	945.95166	1050.87988	249.91470	1051.59229	836.77466	-55.53774	1037.42859	970.38873	39.99112	1067.68188	727.25977	251.85686	570.60034	747.43579	2.03061	619.05426	1120.28491	189.01266	78.05605	621.05811	125.84620	120.64675	992.58990	
253	2.520	101.73426	1679.01038	1088.49255							-14.29813	1703.66357	994.10992	232.29803	1537.24524	828.43774	-64.20905	1540.88672	891.32178	116.95599	1466.86206	960.01520				405.64090	1206.92078	781.12061	-213.65804	1193.59277	893.66650	451.58270	937.54663	935.86395	-155.74948	944.05469	1058.04626	253.11398	1049.91052	848.14948	-55.08992	1035.91882	979.61938	45.26527	1067.26477	736.87866	252.67566	570.06091	753.63678	2.64512	617.66223	1127.74634	188.83464	78.71514	621.30737	131.95317	114.17300	1024.11072	
254	2.530	101.42633	1677.41467	1099.38672							-13.44661	1702.07959	1004.10785	234.72264	1535.81042	841.75330	-62.01984	1539.14026	900.21484	118.12428	1465.21924	971.30432				411.06949	1206.28699	798.10370	-210.92616	1191.42944	899.89575	457.76822	938.77820	954.96521	-155.52863	941.71765	1065.24988	256.12689	1048.46533	859.92957	-52.25423	1033.70508	984.99365	49.20842	1065.45947	745.72827	253.50732	570.14551	758.74890	3.09708	615.75226	1135.74487	188.80539	78.96421	621.68921	135.28246	108.98438	1057.73657	
255	2.540	101.54180	1675.76208	1110.09973							-12.23895	1700.34827	1013.99908	236.92247	1534.65027	853.87189	-60.62991	1537.29089	909.31183	119.17200	1463.45923	981.89038				415.97821	1205.47266	814.39166	-208.96426	1189.41028	906.44098	463.92609	939.83264	973.44012	-155.82367	939.94244	1072.55078	258.83432	1046.58374	871.39825	-51.06875	1031.87366	993.50293	53.91502	1064.71106	755.23975	254.56743	569.56989	765.33191	4.26153	613.06903	1142.46216	188.98148	79.37005	622.11090	139.11032	103.09041	1091.96851	
256	2.550	102.17281	1673.94080	1120.96191							-11.18149	1698.52893	1024.06128	239.20947	1533.23865	866.70276	-59.31034	1535.51135	918.45532	119.63393	1461.45593	993.22729				420.83582	1205.06921	830.13043	-207.25633	1187.16577	913.51166	468.43430	940.56213	992.50677	-155.63155	937.22467	1079.42834	261.59656	1044.88757	882.88531	-49.17701	1029.52307	1002.08148	58.05659	1063.50378	765.09167	255.64778	568.82983	771.52991	6.31651	608.94025	1148.76392	188.87979	80.27922	622.43622	140.40367	98.45920	1123.83582	
257	2.560	102.71159	1672.08569	1131.79248							-11.09527	1697.17151	1034.33911	241.48338	1531.75427	878.18738	-57.57989	1533.16016	927.73724	120.75483	1459.61523	1004.02625				425.02420	1204.91003	847.28430	-205.37907	1184.83057	920.34656	473.20154	941.58777	1011.11346	-155.39203	934.38910	1086.51709	264.31387	1043.24854	894.85968	-47.59946	1027.07385	1011.24731	61.57236	1062.57532	775.47467	257.44989	568.45337	778.68079	8.08661	605.91534	1155.56201	188.76172	81.64991	622.99786	141.36035	95.62655	1156.82336	
258	2.570	102.93310	1670.45667	1142.69629							-10.51377	1695.74292	1044.47693	243.24120	1530.08508	892.61420	-56.36646	1530.86511	937.22717	121.35979	1457.73877	1015.06683				428.76218	1204.02283	862.94269	-203.63466	1182.30627	927.53638	477.33743	942.25610	1029.33887	-155.51944	932.06299	1094.28088	266.58350	1041.34888	906.91425	-46.22851	1025.12537	1020.82837	64.98105	1061.83008	785.07837	258.99731	568.32806	785.07050	10.13138	602.01776	1162.86145	188.93961	83.04887	623.69696	140.25966	93.02575	1188.94263	
259	2.580	101.80707	1669.19275	1153.79980							-9.99910	1694.12976	1054.89441	244.61212	1528.29187	903.94781	-55.44608	1528.85339	946.98486	121.40514	1455.55359	1027.01135				431.95203	1203.97449	879.60510	-202.05106	1179.87964	935.04449	480.75067	943.08301	1048.71179	-155.32776	929.19745	1101.49304	269.05170	1039.87439	918.93787	-44.83890	1022.99652	1030.92419	67.80038	1060.26746	796.71997	260.23499	567.60797	792.77106	12.71714	597.33643	1168.65137	189.43138	84.24660	624.37079	139.01379	91.24186	1219.55042	
260	2.590	102.30616	1666.82788	1164.90283							-9.20572	1692.21948	1065.26123	245.67166	1526.36865	916.40302	-54.47718	1526.83777	956.86725	121.91064	1453.64978	1037.73315				434.60309	1203.17053	895.97906	-200.24646	1177.51184	942.08368	483.76199	943.23291	1066.33105	-155.19643	926.13031	1109.19189	270.95328	1037.66943	930.63043	-42.80860	1020.15387	1041.45081	70.57634	1058.83301	808.13647	262.13443	567.17053	799.80261	15.15038	593.27924	1175.26184	189.48277	86.13858	625.14911	136.46931	90.83956	1249.50415	
261	2.600	101.91383	1665.35413	1176.14600							-9.14284	1690.70374	1075.89246	246.81178	1525.29321	928.78003	-53.32265	1524.40881	966.84692	121.67490	1452.21289	1049.68933				437.79657	1202.75073	913.13788	-199.12634	1175.43738	950.04614	487.08948	944.33368	1084.80457	-155.90343	923.39618	1116.49780	273.00531	1036.47217	943.84180	-40.58382	1017.84424	1052.15405	72.75172	1057.25208	818.88538	263.59149	566.80219	806.78333	16.72296	588.07782	1181.82385	189.63387	88.12607	626.16986	133.74513	91.66403	1277.33740	
